<?xml version="1.0" standalone="no"?>
<svg version="1.0" xmlns="http://www.w3.org/2000/svg"
 width="1280.000000pt" height="447.000000pt" viewBox="0 0 1280.000000 447.000000"
 preserveAspectRatio="xMidYMid meet">
<metadata>
Created by potrace 1.15, written by Peter Selinger 2001-2017
</metadata>
<g transform="translate(0.000000,447.000000) scale(0.100000,-0.100000)"
fill="#008549" stroke="none">
<path d="M8784 4461 c-30 -13 -114 -142 -155 -237 -31 -73 -33 -87 -33 -179 1
-159 49 -258 199 -409 71 -72 130 -118 520 -406 229 -169 369 -320 421 -455
17 -45 37 -58 48 -30 3 9 -5 61 -19 118 -23 98 -31 170 -55 472 -11 143 -39
315 -64 395 -43 138 -151 333 -232 415 -84 86 -255 202 -416 282 -71 36 -173
52 -214 34z"/>
<path d="M7590 4449 c-67 -21 -128 -76 -168 -153 -36 -71 -36 -71 -36 -196 1
-149 16 -191 115 -335 65 -92 279 -315 399 -414 147 -121 360 -311 441 -392
87 -87 156 -145 164 -138 2 2 -5 31 -16 63 -13 38 -24 109 -30 200 -5 77 -14
206 -20 286 -32 462 -120 738 -289 911 -76 78 -147 120 -257 155 -61 19 -256
27 -303 13z"/>
<path d="M10155 4308 c-35 -20 -122 -102 -163 -153 -51 -64 -115 -187 -130
-247 -18 -73 -15 -187 8 -260 26 -86 174 -338 272 -466 51 -67 254 -259 349
-331 143 -109 276 -160 240 -93 -7 13 -11 99 -11 236 0 329 -31 661 -80 859
-28 113 -89 253 -133 302 -99 114 -281 193 -352 153z"/>
<path d="M5019 4180 c-133 -69 -197 -207 -187 -404 5 -85 11 -115 38 -180 70
-168 233 -379 519 -671 199 -204 400 -419 450 -482 19 -24 43 -43 53 -43 11 0
16 -4 13 -10 -3 -5 -1 -10 5 -10 8 0 9 7 5 18 -24 57 -27 118 -21 422 12 566
-17 785 -132 1020 -112 229 -349 371 -615 370 -59 -1 -82 -6 -128 -30z"/>
<path d="M6365 4156 c-184 -32 -253 -80 -297 -203 -51 -144 17 -357 164 -517
106 -116 477 -433 613 -524 112 -74 180 -143 291 -292 51 -67 80 -98 86 -92 7
7 6 23 -2 47 -17 52 -9 105 35 215 l37 95 -1 170 c-2 287 -24 373 -186 725
-82 179 -103 206 -223 287 -45 32 -184 79 -269 92 -88 14 -156 13 -248 -3z"/>
<path d="M580 3944 c-229 -45 -410 -180 -505 -379 -108 -225 -98 -468 28 -720
138 -275 394 -510 762 -700 131 -68 336 -154 438 -186 34 -10 100 -30 147 -44
190 -59 386 -103 640 -144 341 -56 953 -82 1393 -61 137 6 251 10 253 7 9 -9
-124 -86 -318 -185 -288 -147 -416 -239 -533 -382 -131 -160 -180 -266 -227
-490 -30 -145 -32 -370 -4 -416 36 -61 125 -88 281 -88 168 0 262 39 364 150
112 123 168 266 255 654 95 420 148 576 243 710 l39 55 165 17 c90 10 247 27
349 39 102 11 237 27 300 34 63 8 148 19 187 25 40 6 81 10 90 8 16 -3 -114
-62 -327 -150 -52 -21 -166 -75 -253 -119 -443 -223 -630 -490 -567 -809 33
-169 70 -236 158 -287 37 -22 61 -28 132 -31 151 -7 284 54 391 182 99 118
203 311 294 551 103 270 192 488 238 587 42 90 47 97 79 102 18 3 175 29 348
57 173 28 443 73 600 100 157 27 429 74 605 104 176 30 354 62 395 70 139 27
483 86 715 120 127 20 273 42 325 49 248 38 317 47 485 66 1432 157 2347 48
3000 -358 154 -96 212 -141 391 -309 107 -99 245 -276 346 -442 170 -278 308
-633 428 -1096 55 -216 73 -260 84 -208 8 39 -11 254 -33 368 -81 420 -186
715 -369 1040 -46 84 -56 97 -176 260 -89 120 -229 266 -346 360 -47 37 -87
71 -90 74 -28 35 -286 186 -427 252 -340 157 -680 240 -1193 291 -255 26 -956
14 -1320 -22 -52 -5 -149 -15 -215 -21 -109 -11 -427 -52 -725 -95 -235 -33
-1433 -239 -1950 -334 -146 -27 -303 -56 -350 -64 -286 -52 -1213 -177 -1530
-206 -253 -24 -762 -50 -976 -50 -171 0 -503 15 -674 31 -213 19 -630 91 -785
134 -33 10 -89 25 -125 35 -249 69 -568 204 -740 314 -136 87 -186 124 -268
199 -211 191 -323 385 -352 604 -28 220 66 435 244 556 139 94 261 123 496
114 88 -3 160 -2 160 2 0 8 -85 47 -135 61 -42 12 -292 22 -335 14z"/>
<path d="M3980 3776 c-103 -28 -168 -99 -204 -221 -16 -52 -14 -194 3 -255 48
-169 229 -384 591 -701 85 -75 217 -198 294 -274 101 -100 141 -133 147 -124
4 8 6 23 4 34 -3 11 -9 41 -15 67 -5 25 -14 163 -20 305 -21 507 -74 740 -216
940 -97 136 -229 209 -419 232 -107 13 -108 13 -165 -3z"/>
<path d="M2808 3678 c-40 -19 -84 -80 -140 -195 -45 -92 -51 -112 -55 -185 -7
-102 13 -185 63 -275 48 -87 202 -239 351 -349 67 -49 183 -134 259 -189 167
-122 245 -189 333 -288 65 -73 128 -173 144 -229 9 -33 22 -36 37 -8 8 14 4
42 -14 112 -25 94 -36 190 -57 463 -24 331 -81 519 -218 723 -84 125 -174 203
-365 316 -171 101 -275 133 -338 104z"/>
<path d="M1795 3374 c-49 -25 -62 -42 -109 -138 -126 -253 -102 -495 64 -665
62 -64 266 -229 356 -289 148 -98 466 -222 621 -241 89 -11 108 -3 76 31 -11
13 -42 88 -68 168 -83 254 -259 654 -340 774 -14 20 -31 49 -39 64 -20 38
-121 161 -164 199 -47 42 -105 68 -203 93 -93 24 -154 25 -194 4z"/>
<path d="M9735 2369 c-95 -72 -213 -143 -366 -220 -374 -187 -548 -334 -697
-589 -62 -106 -128 -431 -120 -590 5 -95 32 -164 71 -180 41 -17 179 -40 241
-40 120 0 258 52 331 125 80 79 145 197 198 360 26 79 53 189 122 500 65 294
134 460 235 568 63 68 70 81 44 91 -20 7 -12 10 -59 -25z"/>
<path d="M10587 2354 c-4 -4 -7 -14 -7 -23 0 -9 -27 -35 -59 -59 -107 -77
-354 -294 -486 -427 -171 -172 -282 -315 -345 -446 -48 -100 -50 -107 -50
-193 0 -137 36 -245 99 -292 53 -40 317 -42 432 -4 129 44 230 123 289 225 35
63 128 324 166 470 28 108 29 115 29 375 0 244 -2 269 -21 319 -20 53 -33 69
-47 55z"/>
<path d="M8265 2221 c-11 -36 -80 -106 -271 -276 -328 -293 -497 -508 -576
-732 -28 -78 -31 -100 -31 -198 0 -111 6 -142 52 -248 47 -109 143 -221 217
-252 43 -18 150 -20 208 -3 67 19 167 89 214 150 60 78 90 146 122 273 40 159
58 338 70 695 6 173 15 362 20 420 12 135 12 183 1 176 -5 -4 -11 0 -14 6 -2
7 -7 2 -12 -11z"/>
<path d="M7339 2084 c-42 -46 -95 -62 -263 -79 -62 -7 -146 -46 -301 -140
-163 -99 -222 -154 -404 -379 -119 -146 -152 -203 -177 -306 -15 -63 -16 -84
-6 -161 23 -167 95 -323 207 -447 66 -72 110 -98 184 -108 97 -13 179 23 284
125 115 112 174 233 223 460 14 64 40 173 59 243 19 70 42 183 50 250 23 184
55 293 121 413 64 116 76 186 23 129z"/>
<path d="M5959 1958 c-1 -5 -2 -12 -3 -17 -3 -21 -89 -116 -192 -211 -396
-369 -381 -353 -507 -523 -70 -94 -108 -159 -134 -231 -85 -233 -43 -447 126
-637 57 -65 113 -89 203 -89 156 1 284 96 376 277 27 52 71 234 87 362 8 58
19 243 25 411 5 168 14 350 20 405 5 55 12 128 16 162 3 37 2 69 -5 80 -6 10
-11 15 -12 11z"/>
<path d="M2720 1686 c-8 -8 -94 -37 -190 -65 -568 -163 -931 -337 -1072 -514
-61 -76 -110 -255 -94 -341 23 -120 325 -249 530 -225 169 19 248 72 440 294
166 192 177 206 246 337 101 193 162 355 175 471 8 61 -3 74 -35 43z"/>
</g>
</svg>
